<mxfile host="app.diagrams.net" modified="2021-08-10T08:33:41.240Z" agent="5.0 (Windows NT 10.0; Win64; x64) AppleWebKit/537.36 (KHTML, like Gecko) Chrome/91.0.4472.124 Safari/537.36" etag="-HQ8PKOQlCEQY34pXN5g" version="14.9.5" type="github">
  <diagram id="udMFGXqdL8RPBe1a_1wU" name="Page-1">
    <mxGraphModel dx="806" dy="490" grid="0" gridSize="10" guides="1" tooltips="1" connect="1" arrows="1" fold="1" page="1" pageScale="2" pageWidth="827" pageHeight="1169" math="0" shadow="0">
      <root>
        <mxCell id="0" />
        <mxCell id="1" parent="0" />
        <mxCell id="ymIa6TShkXdIqW4yjHUV-1" value="&lt;font style=&quot;font-size: 14px&quot;&gt;推广&lt;/font&gt;" style="endArrow=classic;html=1;dashed=1;" parent="1" edge="1">
          <mxGeometry x="-0.1452" relative="1" as="geometry">
            <mxPoint x="125" y="301" as="sourcePoint" />
            <mxPoint x="490" y="301" as="targetPoint" />
            <Array as="points">
              <mxPoint x="333" y="301" />
            </Array>
            <mxPoint as="offset" />
          </mxGeometry>
        </mxCell>
        <mxCell id="ymIa6TShkXdIqW4yjHUV-5" value="" style="endArrow=none;html=1;" parent="1" edge="1">
          <mxGeometry width="50" height="50" relative="1" as="geometry">
            <mxPoint x="124" y="365" as="sourcePoint" />
            <mxPoint x="124" y="247" as="targetPoint" />
          </mxGeometry>
        </mxCell>
        <mxCell id="ymIa6TShkXdIqW4yjHUV-9" value="" style="endArrow=classic;html=1;" parent="1" edge="1">
          <mxGeometry relative="1" as="geometry">
            <mxPoint x="489" y="291" as="sourcePoint" />
            <mxPoint x="728" y="291" as="targetPoint" />
          </mxGeometry>
        </mxCell>
        <mxCell id="ymIa6TShkXdIqW4yjHUV-10" value="&lt;font style=&quot;font-size: 14px&quot;&gt;调价&lt;/font&gt;" style="edgeLabel;resizable=0;html=1;align=center;verticalAlign=middle;" parent="ymIa6TShkXdIqW4yjHUV-9" connectable="0" vertex="1">
          <mxGeometry relative="1" as="geometry">
            <mxPoint x="-1" y="-1" as="offset" />
          </mxGeometry>
        </mxCell>
        <mxCell id="ymIa6TShkXdIqW4yjHUV-12" value="&lt;font style=&quot;font-size: 18px&quot;&gt;车源&lt;br&gt;上线&lt;/font&gt;" style="text;html=1;align=center;verticalAlign=middle;resizable=0;points=[];autosize=1;strokeColor=none;" parent="1" vertex="1">
          <mxGeometry x="73" y="282" width="46" height="36" as="geometry" />
        </mxCell>
        <mxCell id="ymIa6TShkXdIqW4yjHUV-13" value="&lt;font style=&quot;font-size: 14px&quot;&gt;推广&lt;/font&gt;" style="endArrow=classic;html=1;dashed=1;" parent="1" edge="1">
          <mxGeometry x="-0.0165" relative="1" as="geometry">
            <mxPoint x="490" y="313" as="sourcePoint" />
            <mxPoint x="732" y="313" as="targetPoint" />
            <mxPoint as="offset" />
          </mxGeometry>
        </mxCell>
        <mxCell id="ymIa6TShkXdIqW4yjHUV-16" value="&lt;font style=&quot;font-size: 14px&quot;&gt;拍卖&lt;br&gt;批售&lt;br&gt;&lt;/font&gt;" style="endArrow=classic;html=1;dashed=1;" parent="1" edge="1">
          <mxGeometry x="-0.0127" width="50" height="50" relative="1" as="geometry">
            <mxPoint x="727" y="305" as="sourcePoint" />
            <mxPoint x="806" y="305" as="targetPoint" />
            <mxPoint as="offset" />
          </mxGeometry>
        </mxCell>
        <mxCell id="ymIa6TShkXdIqW4yjHUV-17" value="" style="endArrow=none;html=1;" parent="1" edge="1">
          <mxGeometry width="50" height="50" relative="1" as="geometry">
            <mxPoint x="808" y="361" as="sourcePoint" />
            <mxPoint x="808" y="244" as="targetPoint" />
          </mxGeometry>
        </mxCell>
        <mxCell id="ymIa6TShkXdIqW4yjHUV-18" value="&lt;font style=&quot;font-size: 18px&quot;&gt;车源&lt;br&gt;下架&lt;/font&gt;" style="edgeLabel;html=1;align=center;verticalAlign=middle;resizable=0;points=[];" parent="ymIa6TShkXdIqW4yjHUV-17" vertex="1" connectable="0">
          <mxGeometry x="0.6092" y="-3" relative="1" as="geometry">
            <mxPoint x="19" y="30" as="offset" />
          </mxGeometry>
        </mxCell>
        <mxCell id="ymIa6TShkXdIqW4yjHUV-20" value="怎样更好的推广&lt;br&gt;降低单线索成本" style="ellipse;shape=cloud;whiteSpace=wrap;html=1;" parent="1" vertex="1">
          <mxGeometry x="207" y="161" width="150" height="83" as="geometry" />
        </mxCell>
        <mxCell id="ymIa6TShkXdIqW4yjHUV-21" value="什么是情况下调价" style="ellipse;shape=cloud;whiteSpace=wrap;html=1;" parent="1" vertex="1">
          <mxGeometry x="362" y="350" width="147" height="80" as="geometry" />
        </mxCell>
        <mxCell id="ymIa6TShkXdIqW4yjHUV-22" value="调多少" style="ellipse;shape=cloud;whiteSpace=wrap;html=1;dashed=1;" parent="1" vertex="1">
          <mxGeometry x="542" y="157" width="142" height="77" as="geometry" />
        </mxCell>
        <mxCell id="a0kvl4IBbWwr8GIUNnOb-1" value="" style="shape=flexArrow;endArrow=classic;html=1;fillColor=#d5e8d4;strokeColor=#82b366;" edge="1" parent="1">
          <mxGeometry width="50" height="50" relative="1" as="geometry">
            <mxPoint x="282" y="239" as="sourcePoint" />
            <mxPoint x="277" y="292" as="targetPoint" />
          </mxGeometry>
        </mxCell>
        <mxCell id="a0kvl4IBbWwr8GIUNnOb-2" value="" style="shape=flexArrow;endArrow=classic;html=1;fillColor=#d5e8d4;strokeColor=#82b366;width=10;endSize=6;" edge="1" parent="1">
          <mxGeometry width="50" height="50" relative="1" as="geometry">
            <mxPoint x="613.5" y="229" as="sourcePoint" />
            <mxPoint x="613.5" y="280" as="targetPoint" />
          </mxGeometry>
        </mxCell>
        <mxCell id="a0kvl4IBbWwr8GIUNnOb-3" value="" style="shape=flexArrow;endArrow=classic;html=1;fillColor=#d5e8d4;strokeColor=#82b366;exitX=0.625;exitY=0.2;exitDx=0;exitDy=0;exitPerimeter=0;" edge="1" parent="1" source="ymIa6TShkXdIqW4yjHUV-21">
          <mxGeometry width="50" height="50" relative="1" as="geometry">
            <mxPoint x="436" y="357" as="sourcePoint" />
            <mxPoint x="486" y="307" as="targetPoint" />
          </mxGeometry>
        </mxCell>
      </root>
    </mxGraphModel>
  </diagram>
</mxfile>
